<?xml version="1.0" standalone="no"?><svg xmlns="http://www.w3.org/2000/svg" viewBox="0 0 1440 320"><path fill="#ffffff" fill-opacity="1" d="M0,96L30,133.3C60,171,120,245,180,245.3C240,245,300,171,360,149.3C420,128,480,160,540,186.7C600,213,660,235,720,229.3C780,224,840,192,900,170.7C960,149,1020,139,1080,154.7C1140,171,1200,213,1260,240C1320,267,1380,277,1410,282.7L1440,288L1440,0L1410,0C1380,0,1320,0,1260,0C1200,0,1140,0,1080,0C1020,0,960,0,900,0C840,0,780,0,720,0C660,0,600,0,540,0C480,0,420,0,360,0C300,0,240,0,180,0C120,0,60,0,30,0L0,0Z"></path></svg>